<svg version="1.1" preserveAspectRatio="none" xmlns="http://www.w3.org/2000/svg" width="500" height="500" viewBox="0 0 500 500"><rect width="100%" height="100%" fill="#101F37" fill-opacity="1"/><svg viewBox="96.4334 302.6588 392.2948 290.2321" width="333" height="246.3639316656759" x="83.5px" y="126.818px" xmlns="http://www.w3.org/2000/svg" xmlns:xlink="http://www.w3.org/1999/xlink" preserveAspectRatio="none"><defs></defs><style>.companyName {fill:#E9B0D6;fill-opacity:1;}.icon1 {fill:#929292;fill-opacity:1;}.icon2 {fill:#E9B0D6;fill-opacity:1;}.icon3 {fill:#E5E5E5;fill-opacity:1;}.icon3-str {stroke:#E5E5E5;stroke-opacity:1;}.text {fill:#E9B0D6;fill-opacity:1;}</style><g opacity="1" transform="rotate(0 237.2818 571.8909)">
<svg width="110.598" height="21" x="237.2818" y="571.8909" version="1.1" preserveAspectRatio="none" viewBox="1.2 -28 190.84 36.239999999999995">
  <g transform="matrix(1 0 0 1 0 0)" class="text"><path id="id-6izo4zJp8" d="M17.40-14.64L14.36-14.64Q13.96-17.76 9.34-17.76Q4.72-17.76 4.72-14.88L4.72-14.88Q4.72-13.68 5.70-13.06Q6.68-12.44 8.16-12.04Q9.64-11.64 11.38-11.30Q13.12-10.96 14.60-10.34Q16.08-9.72 17.06-8.64Q18.04-7.56 18.04-5.68L18.04-5.68Q18.04-2.76 15.84-1.22Q13.64 0.32 9.88 0.32L9.88 0.32Q5.88 0.32 3.52-1.68L3.52-1.68Q1.36-3.44 1.20-6.28L1.20-6.28L4.32-6.28Q4.60-3.52 7.44-2.56L7.44-2.56Q8.48-2.24 9.50-2.24Q10.52-2.24 11.40-2.36Q12.28-2.48 13.12-2.80L13.12-2.80Q15.04-3.56 15.04-5.40L15.04-5.40Q15.04-6.64 14.06-7.30Q13.08-7.96 11.60-8.38Q10.12-8.80 8.38-9.14Q6.64-9.48 5.16-10.08Q3.68-10.68 2.70-11.72Q1.72-12.76 1.72-14.60L1.72-14.60Q1.72-17.32 3.70-18.82Q5.68-20.32 9.56-20.32L9.56-20.32Q13.24-20.32 15.36-18.56L15.36-18.56Q17.12-17.08 17.40-14.64L17.40-14.64Z M25.88-28L28.88-28L28.88-16.88Q29.96-18.32 31.52-19.32Q33.08-20.32 35.08-20.32Q37.08-20.32 38.52-19.76Q39.96-19.20 41.04-18.08L41.04-18.08Q43.52-15.64 43.52-11.64L43.52-11.64L43.52 0L40.52 0L40.52-11.56Q40.52-14.32 38.96-15.96Q37.40-17.60 34.92-17.60L34.92-17.60Q32.40-17.60 30.64-15.92L30.64-15.92Q28.88-14.20 28.88-11.52L28.88-11.52L28.88 0L25.88 0L25.88-28Z M61.20-20.32L61.20-20.32Q65.68-20.32 68.48-17.32L68.48-17.32Q71.12-14.44 71.12-10L71.12-10Q71.12-5.56 68.48-2.68L68.48-2.68Q65.68 0.32 61.20 0.32L61.20 0.32Q56.72 0.32 53.92-2.68L53.92-2.68Q51.28-5.56 51.28-10L51.28-10Q51.28-14.44 53.92-17.32L53.92-17.32Q56.72-20.32 61.20-20.32ZM61.20-2.40L61.20-2.40Q64.44-2.40 66.32-4.64L66.32-4.64Q68.12-6.76 68.12-10L68.12-10Q68.12-13.24 66.32-15.36L66.32-15.36Q64.44-17.60 61.20-17.60L61.20-17.60Q57.96-17.60 56.08-15.36L56.08-15.36Q54.28-13.24 54.28-10L54.28-10Q54.28-6.76 56.08-4.64L56.08-4.64Q57.96-2.40 61.20-2.40Z M82.08-20L82.08-16.80Q84.48-20.32 89.24-20.32L89.24-20.32Q93.56-20.32 96.24-17.32L96.24-17.32Q98.92-14.36 98.92-10L98.92-10Q98.92-5.64 96.24-2.68L96.24-2.68Q93.56 0.32 89.04 0.32Q84.52 0.32 82.08-3.24L82.08-3.24L82.08 7.92L79.08 7.92L79.08-20L82.08-20ZM88.84-17.60L88.84-17.60Q85.60-17.60 83.72-15.36L83.72-15.36Q81.92-13.24 81.92-10L81.92-10Q81.92-6.76 83.72-4.64L83.72-4.64Q85.60-2.40 88.84-2.40L88.84-2.40Q92.04-2.40 94.04-4.64L94.04-4.64Q95.92-6.76 95.92-10L95.92-10Q95.92-13.24 94.04-15.36L94.04-15.36Q92.04-17.60 88.84-17.60Z M109.84-20L109.84-16.80Q112.24-20.32 117.00-20.32L117.00-20.32Q121.32-20.32 124.00-17.32L124.00-17.32Q126.68-14.36 126.68-10L126.68-10Q126.68-5.64 124.00-2.68L124.00-2.68Q121.32 0.32 116.80 0.32Q112.28 0.32 109.84-3.24L109.84-3.24L109.84 7.92L106.84 7.92L106.84-20L109.84-20ZM116.60-17.60L116.60-17.60Q113.36-17.60 111.48-15.36L111.48-15.36Q109.68-13.24 109.68-10L109.68-10Q109.68-6.76 111.48-4.64L111.48-4.64Q113.36-2.40 116.60-2.40L116.60-2.40Q119.80-2.40 121.80-4.64L121.80-4.64Q123.68-6.76 123.68-10L123.68-10Q123.68-13.24 121.80-15.36L121.80-15.36Q119.80-17.60 116.60-17.60Z M134.60 0L134.60-20L137.60-20L137.60 0L134.60 0ZM134.48-27.28L137.72-27.28L137.72-23.36L134.48-23.36L134.48-27.28Z M146.80-20L149.80-20L149.80-16.88Q150.88-18.32 152.44-19.32Q154-20.32 156-20.32Q158-20.32 159.44-19.76Q160.88-19.20 161.96-18.08L161.96-18.08Q164.44-15.64 164.44-11.64L164.44-11.64L164.44 0L161.44 0L161.44-11.56Q161.44-14.32 159.88-15.96Q158.32-17.60 155.84-17.60L155.84-17.60Q153.32-17.60 151.56-15.92L151.56-15.92Q149.80-14.20 149.80-11.52L149.80-11.52L149.80 0L146.80 0L146.80-20Z M189.04-16.80L189.04-16.80L189.04-20L192.04-20L192.04-0.60Q192.04 3.72 189.58 5.98Q187.12 8.24 182.96 8.24Q178.80 8.24 176.46 6.64Q174.12 5.04 173.28 2.40L173.28 2.40L176.60 2.40Q177.88 5.52 182.44 5.52L182.44 5.52Q185.92 5.52 187.48 3.92Q189.04 2.32 189.04-0.80L189.04-0.80L189.04-3.56Q186.60 0 181.88 0L181.88 0Q177.56 0 174.84-2.96L174.84-2.96Q172.20-5.84 172.20-10.16L172.20-10.16Q172.20-14.48 174.84-17.36L174.84-17.36Q177.56-20.32 182.10-20.32Q186.64-20.32 189.04-16.80ZM182.28-2.72L182.28-2.72Q183.92-2.72 185.20-3.30Q186.48-3.88 187.40-4.88L187.40-4.88Q189.20-6.96 189.20-10.16L189.20-10.16Q189.20-13.36 187.40-15.44L187.40-15.44Q185.44-17.60 182.28-17.60L182.28-17.60Q179.04-17.60 177.08-15.44L177.08-15.44Q175.20-13.32 175.20-10.16L175.20-10.16Q175.20-7 177.08-4.88L177.08-4.88Q179.04-2.72 182.28-2.72Z"/></g>
</svg>
</g><g opacity="1" transform="rotate(0 96.4334 489.8909)">
<svg width="392.2948" height="60" x="96.4334" y="489.8909" version="1.1" preserveAspectRatio="none" viewBox="4.3359 -30.5273 202.2774 30.9375">
  <g transform="matrix(1 0 0 1 0 0)" class="companyName"><path id="id-D6z1nYkh5" d="M4.34 0L4.34-30.53L30.33-30.53L30.33-25.10L10.53-25.10L10.53-19.00L28.07-19.00L28.07-13.91L10.53-13.91L10.53-5.41L30.74-5.41L30.74 0L4.34 0Z M37.51-11.46L37.51-11.46Q37.51-14.00 38.44-16.20Q39.36-18.40 41.15-20.01Q42.94-21.62 45.53-22.54Q48.11-23.46 51.43-23.46L51.43-23.46Q52.88-23.46 54.34-23.28Q55.81-23.11 57.17-22.78Q58.52-22.46 59.71-22.02Q60.91-21.58 61.79-21.05L61.79-21.05L59.11-16.70Q57.21-17.58 55.53-17.99Q53.84-18.40 52.10-18.40L52.10-18.40Q50.11-18.40 48.52-17.88Q46.94-17.36 45.84-16.44Q44.73-15.51 44.16-14.25Q43.58-12.99 43.58-11.50L43.58-11.50Q43.58-10.02 44.20-8.76Q44.81-7.50 45.94-6.59Q47.06-5.68 48.65-5.17Q50.24-4.65 52.20-4.65L52.20-4.65Q54.34-4.65 56.25-5.25Q58.15-5.86 59.79-6.88L59.79-6.88L62.47-2.52Q61.43-1.89 60.22-1.36Q59.01-0.82 57.63-0.43Q56.26-0.04 54.74 0.19Q53.23 0.41 51.61 0.41L51.61 0.41Q48.31 0.41 45.69-0.49Q43.07-1.39 41.26-2.98Q39.44-4.57 38.47-6.74Q37.51-8.91 37.51-11.46Z M69.31-11.52L69.31-11.52Q69.31-14.00 70.32-16.17Q71.32-18.34 73.19-19.96Q75.05-21.58 77.70-22.52Q80.35-23.46 83.65-23.46L83.65-23.46Q86.95-23.46 89.60-22.52Q92.24-21.58 94.11-19.96Q95.97-18.34 96.98-16.17Q97.98-14.00 97.98-11.52L97.98-11.52Q97.98-9.04 96.98-6.88Q95.97-4.71 94.11-3.09Q92.24-1.46 89.60-0.53Q86.95 0.41 83.65 0.41L83.65 0.41Q80.35 0.41 77.70-0.53Q75.05-1.46 73.19-3.09Q71.32-4.71 70.32-6.88Q69.31-9.04 69.31-11.52ZM75.39-11.52L75.39-11.52Q75.39-10.14 75.94-8.90Q76.50-7.66 77.56-6.71Q78.63-5.76 80.16-5.21Q81.70-4.65 83.65-4.65L83.65-4.65Q85.60-4.65 87.13-5.21Q88.67-5.76 89.73-6.71Q90.80-7.66 91.35-8.90Q91.91-10.14 91.91-11.52L91.91-11.52Q91.91-12.91 91.35-14.16Q90.80-15.41 89.73-16.36Q88.67-17.30 87.13-17.86Q85.60-18.42 83.65-18.42L83.65-18.42Q81.70-18.42 80.16-17.86Q78.63-17.30 77.56-16.36Q76.50-15.41 75.94-14.16Q75.39-12.91 75.39-11.52Z M105.98 0L105.98-23.05L111.76-23.05L111.76-21.09Q113.93-22.42 115.99-22.94Q118.05-23.46 120.02-23.46L120.02-23.46Q122.78-23.46 125.08-22.58Q127.39-21.70 129.03-19.92L129.03-19.92Q130.30-20.90 131.53-21.57Q132.76-22.25 133.99-22.67Q135.22-23.09 136.49-23.27Q137.76-23.46 139.11-23.46L139.11-23.46Q141.94-23.46 144.24-22.69Q146.55-21.91 148.18-20.39Q149.81-18.87 150.70-16.59Q151.59-14.32 151.59-11.33L151.59-11.33L151.59 0L145.82 0L145.82-10.39Q145.82-12.29 145.29-13.78Q144.75-15.27 143.78-16.30Q142.82-17.32 141.48-17.86Q140.14-18.40 138.54-18.40L138.54-18.40Q137.66-18.40 136.74-18.23Q135.82-18.07 134.96-17.71Q134.09-17.36 133.32-16.83Q132.56-16.29 132.00-15.57L132.00-15.57L132.00 0L126.23 0L126.23-10.39Q126.23-12.29 125.70-13.78Q125.16-15.27 124.19-16.30Q123.23-17.32 121.87-17.86Q120.51-18.40 118.89-18.40L118.89-18.40Q117.89-18.40 116.89-18.19Q115.88-17.99 114.96-17.62Q114.03-17.25 113.22-16.72Q112.41-16.19 111.76-15.53L111.76-15.53L111.76 0L105.98 0Z M161.01 0L161.01-23.05L166.79-23.05L166.79-21.09Q168.96-22.42 171.02-22.94Q173.08-23.46 175.05-23.46L175.05-23.46Q177.80-23.46 180.11-22.58Q182.41-21.70 184.05-19.92L184.05-19.92Q185.32-20.90 186.55-21.57Q187.79-22.25 189.02-22.67Q190.25-23.09 191.52-23.27Q192.79-23.46 194.13-23.46L194.13-23.46Q196.96-23.46 199.27-22.69Q201.57-21.91 203.21-20.39Q204.84-18.87 205.72-16.59Q206.61-14.32 206.61-11.33L206.61-11.33L206.61 0L200.85 0L200.85-10.39Q200.85-12.29 200.31-13.78Q199.78-15.27 198.81-16.30Q197.84-17.32 196.51-17.86Q195.17-18.40 193.57-18.40L193.57-18.40Q192.69-18.40 191.77-18.23Q190.85-18.07 189.98-17.71Q189.11-17.36 188.35-16.83Q187.59-16.29 187.02-15.57L187.02-15.57L187.02 0L181.26 0L181.26-10.39Q181.26-12.29 180.72-13.78Q180.19-15.27 179.22-16.30Q178.25-17.32 176.90-17.86Q175.54-18.40 173.92-18.40L173.92-18.40Q172.92-18.40 171.92-18.19Q170.91-17.99 169.98-17.62Q169.05-17.25 168.24-16.72Q167.43-16.19 166.79-15.53L166.79-15.53L166.79 0L161.01 0Z"/></g>
</svg>
</g><g opacity="1" transform="rotate(0 214.1219 302.6588)">
<svg width="156.9179" height="157.2321" x="214.1219" y="302.6588" version="1.1" preserveAspectRatio="none" viewBox="10.299997329711914 9.999998092651367 99.89999389648438 100.09999084472656">
  <g transform="matrix(1 0 0 1 0 0)" class="icon1"><path d="M110.1,49.3c0-9.1-7.9-14.7-15-14.7h-9.2c0-4.3,0-9.4,0-9.4c0-7.1-5.4-15.2-14.5-15.2c-4.8,0-8.6,2.1-11.1,5.1  c-2.5-3-6.3-5.1-10.9-5.1c-9.1,0-14.7,7.9-14.7,15.2c0,9.4,0,9.4,0,9.4c-4.3,0-9.2,0-9.2,0c-7.1,0-15.2,5.4-15.2,14.5  c0,4.8,2.1,8.6,5.1,11.1c-3,2.5-5.1,6.3-5.1,10.9c0,9.1,7.9,14.7,15,14.7h9.4c0,4.3,0,9.1,0,9.1c0,7.3,5.4,15.2,14.5,15.2  c4.8,0,8.6-2,11.1-5.1c2.5,3.1,6.3,5.1,10.9,5.1c9.1,0,14.7-7.9,14.7-15c0-9.2,0-9.2,0-9.2c4.3,0,9.1,0,9.1,0  c7.3,0,15.2-5.4,15.2-14.5c0-4.8-2-8.4-5.1-11.1C107.9,57.7,110.1,53.9,110.1,49.3z M42.3,25.3c0-3.6,2.5-7.8,7.1-7.8  c4.8,0,6.9,4.6,6.9,7.6v9.4h-14C42.3,30.5,42.3,25.3,42.3,25.3z M34.5,78.2h-9.1c-3.5,0-7.6-2.5-7.6-6.9c0-5,4.5-7.1,7.6-7.1h9.1  V78.2z M56.5,94.8c0,3.6-2.6,7.6-7.1,7.6c-4.9,0-7.1-4.5-7.1-7.6V64h14.2V94.8z M56.5,56.4h-31c-3.5,0-7.6-2.6-7.6-7.1  c0-5,4.3-7.1,7.9-7.1h30.7V56.4z M64.2,25.3c0-3.6,2.5-7.8,6.9-7.8c5,0,7.3,4.6,7.3,7.6v31.2H64.2V25.3z M78.2,94.8  c0,3.5-2.5,7.6-6.9,7.6c-5,0-7.1-4.5-7.1-7.6v-9.1h14V94.8z M94.9,78.2H64.2V64c0,0,28.2,0,31,0c2.8,0,7.3,2.6,7.3,7.1  C102.5,76,98,78.2,94.9,78.2z M94.9,56.4H86V42.2h8.9c3.5,0,7.6,2.5,7.6,7.1C102.5,54.1,98,56.4,94.9,56.4z"></path></g>
</svg>
</g></svg></svg>